<svg xmlns="http://www.w3.org/2000/svg" width="72" height="72" viewBox="0 0 72 72">
  <g id="Group_63336" data-name="Group 63336" transform="translate(-270 -7678)">
    <g id="Group_63337" data-name="Group 63337" transform="translate(268 7676)">
      <g id="Ellipse_398" data-name="Ellipse 398" transform="translate(2 2)" fill="none" stroke="#5f6c7b" stroke-width="2">
        <circle cx="36" cy="36" r="36" stroke="none"/>
        <circle cx="36" cy="36" r="35" fill="none"/>
      </g>
    </g>
    <path id="user-secret-solid" d="M17.149,1.251A1.893,1.893,0,0,1,15.962.774,3.757,3.757,0,0,0,13.474,0C11.139,0,9.493,3.416,8.421,6.988,4.8,7.668,2.45,8.77,2.45,10c0,1.118,1.914,2.118,4.946,2.806-.031.313-.046.625-.046.946a10.145,10.145,0,0,0,.712,3.752H3.476A1.037,1.037,0,0,0,2.45,18.556a.987.987,0,0,0,.077.391L5.5,26.521A14.012,14.012,0,0,0,0,37.7,2.3,2.3,0,0,0,2.274,40.02h29.75A2.3,2.3,0,0,0,34.3,37.7a14.039,14.039,0,0,0-5.489-11.177l2.963-7.574a1.144,1.144,0,0,0,.077-.391,1.037,1.037,0,0,0-1.026-1.047H26.236a10.145,10.145,0,0,0,.712-3.752c0-.32-.015-.633-.046-.946,3.032-.688,4.946-1.688,4.946-2.806,0-1.235-2.35-2.337-5.971-3.017C24.8,3.416,23.158,0,20.823,0a3.757,3.757,0,0,0-2.488.774A1.911,1.911,0,0,1,17.149,1.251Zm4.287,16.258h-.949a2.938,2.938,0,0,1-2.779-2.048.581.581,0,0,0-1.11,0,2.945,2.945,0,0,1-2.779,2.048h-.957A3.094,3.094,0,0,1,9.8,14.382V13.256a50.877,50.877,0,0,0,7.349.5,50.877,50.877,0,0,0,7.349-.5v1.126A3.094,3.094,0,0,1,21.436,17.509Zm-6.737,7.5,1.225,2.5-2.45,10L9.8,22.511Zm9.8-2.5L20.823,37.518l-2.45-10,1.225-2.5Z" transform="translate(288.351 7689.372)" fill="#5f6c7b"/>
    <text id="unknown" transform="translate(291 7737.821)" fill="#5f6c7b" font-size="6" font-family="Poppins-Bold, Poppins" font-weight="700" letter-spacing="0.033em"><tspan x="0" y="0">unknown</tspan></text>
  </g>
</svg>
