<svg width="76" height="76" viewBox="0 0 76 76" fill="none" xmlns="http://www.w3.org/2000/svg">
<rect width="76" height="76" fill="white"/>
<path d="M38 76C58.9868 76 76 58.9868 76 38C76 17.0132 58.9868 0 38 0C17.0132 0 0 17.0132 0 38C0 58.9868 17.0132 76 38 76Z" fill="white"/>
<path d="M38 75C58.4345 75 75 58.4345 75 38C75 17.5655 58.4345 1 38 1C17.5655 1 1 17.5655 1 38C1 58.4345 17.5655 75 38 75Z" stroke="white" stroke-width="2"/>
<path d="M38 74C57.8823 74 74 57.8823 74 38C74 18.1177 57.8823 2 38 2C18.1177 2 2 18.1177 2 38C2 57.8823 18.1177 74 38 74Z" fill="white"/>
<path d="M38 73C57.33 73 73 57.33 73 38C73 18.67 57.33 3 38 3C18.67 3 3 18.67 3 38C3 57.33 18.67 73 38 73Z" stroke="#5F6C7B" stroke-width="2"/>
<path d="M37.5007 14.6229C37.0616 14.6064 36.642 14.4378 36.3137 14.1459C35.6032 13.5993 34.7208 13.3248 33.8257 13.3719C31.4907 13.3719 29.8447 16.7879 28.7727 20.3599C25.1517 21.0399 22.8017 22.1419 22.8017 23.3719C22.8017 24.4899 24.7157 25.4899 27.7477 26.1779C27.7167 26.4909 27.7017 26.8029 27.7017 27.1239C27.6993 28.4083 27.9409 29.6816 28.4137 30.8759H23.8277C23.6911 30.8773 23.5562 30.9057 23.4307 30.9594C23.3052 31.0131 23.1915 31.091 23.0962 31.1888C23.0008 31.2865 22.9257 31.4021 22.8752 31.529C22.8247 31.6558 22.7997 31.7914 22.8017 31.9279C22.8005 32.0621 22.8267 32.1951 22.8787 32.3189L25.8517 39.8929C24.1348 41.2058 22.745 42.8982 21.7908 44.8375C20.8367 46.7768 20.3441 48.9106 20.3517 51.0719C20.3463 51.6809 20.5827 52.2671 21.009 52.702C21.4353 53.1369 22.0167 53.385 22.6257 53.3919H52.3756C52.985 53.3855 53.5669 53.1377 53.9936 52.7027C54.4203 52.2677 54.657 51.6812 54.6516 51.0719C54.6581 48.9122 54.1662 46.7801 53.2141 44.8415C52.2621 42.903 50.8757 41.2102 49.1627 39.8949L52.1257 32.3209C52.174 32.1961 52.2001 32.0637 52.2027 31.9299C52.2053 31.655 52.0987 31.3903 51.9064 31.194C51.714 30.9977 51.4515 30.8858 51.1767 30.8829H46.5877C47.0604 29.6886 47.302 28.4153 47.2997 27.1309C47.2997 26.8109 47.2847 26.4979 47.2537 26.1849C50.2857 25.4969 52.1996 24.4969 52.1996 23.3789C52.1996 22.1439 49.8497 21.0419 46.2287 20.3619C45.1517 16.7879 43.5097 13.3719 41.1747 13.3719C40.2795 13.3248 39.3971 13.5993 38.6866 14.1459C38.3578 14.4363 37.939 14.6047 37.5007 14.6229ZM41.7877 30.8809H40.8386C40.2186 30.8765 39.6158 30.676 39.1166 30.3081C38.6175 29.9402 38.2475 29.4238 38.0597 28.8329C38.0229 28.7144 37.9493 28.6107 37.8494 28.5371C37.7495 28.4635 37.6287 28.4237 37.5047 28.4237C37.3806 28.4237 37.2598 28.4635 37.1599 28.5371C37.06 28.6107 36.9864 28.7144 36.9496 28.8329C36.7609 29.4233 36.3907 29.939 35.8917 30.3068C35.3927 30.6745 34.7905 30.8754 34.1707 30.8809H33.2137C32.8073 30.8767 32.4057 30.7925 32.0318 30.6331C31.658 30.4736 31.3192 30.2421 31.0348 29.9517C30.7505 29.6614 30.5261 29.3178 30.3746 28.9407C30.223 28.5636 30.1473 28.1603 30.1517 27.7539V26.6279C32.586 26.9719 35.0421 27.139 37.5007 27.1279C39.9592 27.139 42.4153 26.9719 44.8496 26.6279V27.7539C44.854 28.1603 44.7783 28.5636 44.6267 28.9407C44.4752 29.3178 44.2508 29.6614 43.9665 29.9517C43.6821 30.2421 43.3433 30.4736 42.9695 30.6331C42.5956 30.7925 42.1941 30.8767 41.7877 30.8809ZM35.0507 38.3809L36.2757 40.8809L33.8257 50.8809L30.1517 35.8829L35.0507 38.3809ZM44.8507 35.8809L41.1747 50.8899L38.7246 40.8899L39.9496 38.3899L44.8507 35.8809Z" fill="#5F6C7B"/>
<path d="M26.678 59.4728V62.8208H25.652V62.3648C25.548 62.5128 25.406 62.6328 25.226 62.7248C25.05 62.8128 24.854 62.8568 24.638 62.8568C24.382 62.8568 24.156 62.8008 23.96 62.6888C23.764 62.5728 23.612 62.4068 23.504 62.1908C23.396 61.9748 23.342 61.7208 23.342 61.4288V59.4728H24.362V61.2908C24.362 61.5148 24.42 61.6888 24.536 61.8128C24.652 61.9368 24.808 61.9988 25.004 61.9988C25.204 61.9988 25.362 61.9368 25.478 61.8128C25.594 61.6888 25.652 61.5148 25.652 61.2908V59.4728H26.678ZM29.455 59.4368C29.847 59.4368 30.159 59.5648 30.391 59.8208C30.627 60.0728 30.745 60.4208 30.745 60.8648V62.8208H29.725V61.0028C29.725 60.7788 29.667 60.6048 29.551 60.4808C29.435 60.3568 29.279 60.2948 29.083 60.2948C28.887 60.2948 28.731 60.3568 28.615 60.4808C28.499 60.6048 28.441 60.7788 28.441 61.0028V62.8208H27.415V59.4728H28.441V59.9168C28.545 59.7688 28.685 59.6528 28.861 59.5688C29.037 59.4808 29.235 59.4368 29.455 59.4368ZM33.5039 62.8208L32.4839 61.4168V62.8208H31.4579V58.3808H32.4839V60.8348L33.4979 59.4728H34.7639L33.3719 61.1528L34.7759 62.8208H33.5039ZM37.2069 59.4368C37.5989 59.4368 37.9109 59.5648 38.1429 59.8208C38.3789 60.0728 38.4969 60.4208 38.4969 60.8648V62.8208H37.4769V61.0028C37.4769 60.7788 37.4189 60.6048 37.3029 60.4808C37.1869 60.3568 37.0309 60.2948 36.8349 60.2948C36.6389 60.2948 36.4829 60.3568 36.3669 60.4808C36.2509 60.6048 36.1929 60.7788 36.1929 61.0028V62.8208H35.1669V59.4728H36.1929V59.9168C36.2969 59.7688 36.4369 59.6528 36.6129 59.5688C36.7889 59.4808 36.9869 59.4368 37.2069 59.4368ZM40.7339 62.8688C40.4059 62.8688 40.1099 62.7988 39.8459 62.6588C39.5859 62.5188 39.3799 62.3188 39.2279 62.0588C39.0799 61.7988 39.0059 61.4948 39.0059 61.1468C39.0059 60.8028 39.0819 60.5008 39.2339 60.2408C39.3859 59.9768 39.5939 59.7748 39.8579 59.6348C40.1219 59.4948 40.4179 59.4248 40.7459 59.4248C41.0739 59.4248 41.3699 59.4948 41.6339 59.6348C41.8979 59.7748 42.1059 59.9768 42.2579 60.2408C42.4099 60.5008 42.4859 60.8028 42.4859 61.1468C42.4859 61.4908 42.4079 61.7948 42.2519 62.0588C42.0999 62.3188 41.8899 62.5188 41.6219 62.6588C41.3579 62.7988 41.0619 62.8688 40.7339 62.8688ZM40.7339 61.9808C40.9299 61.9808 41.0959 61.9088 41.2319 61.7648C41.3719 61.6208 41.4419 61.4148 41.4419 61.1468C41.4419 60.8788 41.3739 60.6728 41.2379 60.5288C41.1059 60.3848 40.9419 60.3128 40.7459 60.3128C40.5459 60.3128 40.3799 60.3848 40.2479 60.5288C40.1159 60.6688 40.0499 60.8748 40.0499 61.1468C40.0499 61.4148 40.1139 61.6208 40.2419 61.7648C40.3739 61.9088 40.5379 61.9808 40.7339 61.9808ZM47.8362 59.4728L46.9302 62.8208H45.7962L45.2682 60.6488L44.7222 62.8208H43.5942L42.6822 59.4728H43.7082L44.1822 61.8668L44.7462 59.4728H45.8322L46.4022 61.8548L46.8702 59.4728H47.8362ZM50.2675 59.4368C50.6595 59.4368 50.9715 59.5648 51.2035 59.8208C51.4395 60.0728 51.5575 60.4208 51.5575 60.8648V62.8208H50.5375V61.0028C50.5375 60.7788 50.4795 60.6048 50.3635 60.4808C50.2475 60.3568 50.0915 60.2948 49.8955 60.2948C49.6995 60.2948 49.5435 60.3568 49.4275 60.4808C49.3115 60.6048 49.2535 60.7788 49.2535 61.0028V62.8208H48.2275V59.4728H49.2535V59.9168C49.3575 59.7688 49.4975 59.6528 49.6735 59.5688C49.8495 59.4808 50.0475 59.4368 50.2675 59.4368Z" fill="#5F6C7B"/>
</svg>
